<svg xmlns="http://www.w3.org/2000/svg" xmlns:xlink="http://www.w3.org/1999/xlink" contentStyleType="text/css" data-diagram-type="DESCRIPTION" height="243px" preserveAspectRatio="none" style="width:329px;height:243px;background:#FFFFFF;" version="1.1" viewBox="0 0 329 243" width="329px" zoomAndPan="magnify"><?plantuml 1.2026.4beta2?><defs/><g><g class="title" data-source-line="1"><text fill="#000000" font-family="sans-serif" font-size="14" font-weight="700" lengthAdjust="spacing" textLength="302.7568" x="10" y="22.9951">Component Architecture - Lexa-Blocks</text></g><!--entity GC--><g class="entity" data-qualified-name="GC" data-source-line="3" id="ent0002"><rect fill="#F1F1F1" height="46.2969" rx="2.5" ry="2.5" style="stroke:#181818;stroke-width:0.5;" width="114.3887" x="7.1667" y="44.2969"/><rect fill="#F1F1F1" height="10" style="stroke:#181818;stroke-width:0.5;" width="15" x="101.5554" y="49.2969"/><rect fill="#F1F1F1" height="2" style="stroke:#181818;stroke-width:0.5;" width="4" x="99.5554" y="51.2969"/><rect fill="#F1F1F1" height="2" style="stroke:#181818;stroke-width:0.5;" width="4" x="99.5554" y="55.2969"/><text fill="#000000" font-family="sans-serif" font-size="14" lengthAdjust="spacing" textLength="74.3887" x="22.1667" y="77.292">GameCore</text></g><!--entity EM--><g class="entity" data-qualified-name="EM" data-source-line="4" id="ent0003"><rect fill="#F1F1F1" height="46.2969" rx="2.5" ry="2.5" style="stroke:#181818;stroke-width:0.5;" width="117.5127" x="156.6067" y="44.2969"/><rect fill="#F1F1F1" height="10" style="stroke:#181818;stroke-width:0.5;" width="15" x="254.1194" y="49.2969"/><rect fill="#F1F1F1" height="2" style="stroke:#181818;stroke-width:0.5;" width="4" x="252.1194" y="51.2969"/><rect fill="#F1F1F1" height="2" style="stroke:#181818;stroke-width:0.5;" width="4" x="252.1194" y="55.2969"/><text fill="#000000" font-family="sans-serif" font-size="14" lengthAdjust="spacing" textLength="77.5127" x="171.6067" y="77.292">EduModule</text></g><!--entity IEdu--><g class="entity" data-qualified-name="IEdu" data-source-line="5" id="ent0004"><ellipse cx="65.3567" cy="196.5969" fill="#F1F1F1" rx="8" ry="8" style="stroke:#181818;stroke-width:0.5;"/><text fill="#000000" font-family="sans-serif" font-size="14" lengthAdjust="spacing" textLength="82.4756" x="24.1189" y="226.592">IEduService</text></g><!--entity Remote--><g class="entity" data-qualified-name="Remote" data-source-line="10" id="ent0007"><path d="M160.5045,181.9833 C164.6972,177.3077 168.4628,177.3711 171.8132,182.9155 C174.5935,177.1924 177.8404,175.9271 182.5203,181.0381 C185.8042,175.9826 190.047,174.9978 193.8331,180.4999 C197.5308,173.7294 201.9695,173.8295 206.204,179.9862 C208.6217,174.4517 213.8377,173.7457 217.303,178.8982 C221.5631,173.9664 225.4775,174.6201 228.8653,179.8871 C232.1807,174.7833 237.0431,175.447 240.0145,180.2733 C244.2003,176.093 247.8461,175.73 251.0317,181.3928 C254.3141,177.1445 257.5572,177.0483 261.0641,181.1221 C265.0161,176.5623 270.0009,177.6213 272.5678,182.7643 C281.5878,184.1105 284.8783,188.4906 280.4454,197.1855 C283.879,205.5365 282.6089,210.7109 272.6753,212.0963 C270.7873,218.0062 266.8851,218.8925 262.6054,214.4149 C258.2687,220.1133 254.279,220.3045 249.7145,214.6741 C246.5602,221.041 241.8789,219.92 238.0734,215.3684 C235.3549,219.7455 231.4367,219.692 228.878,215.2027 C225.2015,222.7885 220.5343,221.9749 215.4387,216.6838 C211.7369,220.4424 207.6377,219.7285 206.1408,214.4222 C203.4001,220.6864 197.9071,220.3816 194.2957,215.3341 C190.4112,219.9069 184.9357,219.4091 183.1284,213.1855 C179.8055,219.8252 174.3809,219.0434 170.9538,213.2878 C167.4606,218.8309 162.5723,219.118 159.4313,212.9415 C151.5576,208.8649 150.9564,204.1442 157.6801,198.3194 C151.123,192.6127 151.5415,185.0067 160.5045,181.9833" fill="#F1F1F1" style="stroke:#181818;stroke-width:0.5;"/><text fill="#000000" font-family="sans-serif" font-size="14" lengthAdjust="spacing" textLength="99.4014" x="165.6567" y="201.442">Remote AI API</text></g><!--link GC to IEdu--><g class="link" data-entity-1="ent0002" data-entity-2="ent0004" data-link-type="dependency" data-source-line="7" id="lnk5"><path d="M64.5367,90.8869 C64.7667,119.8369 65.0994,162.7171 65.2494,181.7171" fill="none" id="GC-to-IEdu" style="stroke:#181818;stroke-width:1;stroke-dasharray:7,7;"/><polygon fill="#181818" points="65.2967,187.7169,69.2255,178.6856,65.2572,182.717,61.2258,178.7487,65.2967,187.7169" style="stroke:#181818;stroke-width:1;"/></g><!--link EM to IEdu--><g class="link" data-entity-1="ent0003" data-entity-2="ent0004" data-link-type="extension" data-source-line="8" id="lnk6"><path d="M188.8867,90.8869 C154.5767,119.9769 110.2383,157.5588 88.0683,176.3488" fill="none" id="EM-to-IEdu" style="stroke:#181818;stroke-width:1;stroke-dasharray:7,7;"/><polygon fill="none" points="74.3367,187.9869,91.9476,180.926,84.1889,171.7716,74.3367,187.9869" style="stroke:#181818;stroke-width:1;"/></g><!--link EM to Remote--><g class="link" data-entity-1="ent0003" data-entity-2="ent0007" data-link-type="dependency" data-source-line="11" id="lnk8"><path d="M215.3567,90.8869 C215.3567,113.9869 215.3567,143.7769 215.3567,166.9569" fill="none" id="EM-to-Remote" style="stroke:#181818;stroke-width:1;"/><polygon fill="#181818" points="215.3567,172.9569,219.3567,163.9569,215.3567,167.9569,211.3567,163.9569,215.3567,172.9569" style="stroke:#181818;stroke-width:1;"/><text fill="#000000" font-family="sans-serif" font-size="13" lengthAdjust="spacing" textLength="97.2334" x="216.3567" y="133.6638">optionally calls</text></g><?plantuml-src JOj12i8m44NtESMGVNe05uKQIYbO43r1c8uOJ3EIJaJ1mzkQ8cu-y-RzBru2WUNfpf6YG9FmweLGSY8mSA2dC_l0U9kLmbzBTsuYouaqk1aw-w_QCGyyvb1SEoWVXTB58O7k5tcczF1OxCfATHQggYxG3ilzta1Xu3o2Fj74Gj3qq1pxxx1yrhOnzKQm0xwBv-X2U04kENy0?></g></svg>