<svg xmlns="http://www.w3.org/2000/svg" xmlns:xlink="http://www.w3.org/1999/xlink" contentStyleType="text/css" data-diagram-type="CLASS" height="665px" preserveAspectRatio="none" style="width:1814px;height:665px;background:#FFFFFF;" version="1.1" viewBox="0 0 1814 665" width="1814px" zoomAndPan="magnify"><?plantuml 1.2026.4beta2?><defs/><g><g class="title" data-source-line="1"><text fill="#000000" font-family="sans-serif" font-size="14" font-weight="700" lengthAdjust="spacing" textLength="279.0088" x="764.1533" y="22.9951">Class Diagram - Lexa-Blocks (draft)</text></g><!--class IEduService--><g class="entity" data-qualified-name="IEduService" data-source-line="3" id="ent0002"><rect fill="#F1F1F1" height="80.5938" rx="2.5" ry="2.5" style="stroke:#181818;stroke-width:0.5;" width="377.0596" x="105.35" y="356.0069"/><ellipse cx="248.392" cy="372.0069" fill="#B4A7E5" rx="11" ry="11" style="stroke:#181818;stroke-width:1;"/><path d="M244.3139,367.7725 L244.3139,365.6163 L251.7045,365.6163 L251.7045,367.7725 L249.2357,367.7725 L249.2357,375.8506 L251.7045,375.8506 L251.7045,378.0069 L244.3139,378.0069 L244.3139,375.8506 L246.7826,375.8506 L246.7826,367.7725 L244.3139,367.7725 Z " fill="#000000"/><text fill="#000000" font-family="sans-serif" font-size="14" font-style="italic" lengthAdjust="spacing" textLength="82.4756" x="268.892" y="376.8536">IEduService</text><line style="stroke:#181818;stroke-width:0.5;" x1="106.35" x2="481.4096" y1="388.0069" y2="388.0069"/><line style="stroke:#181818;stroke-width:0.5;" x1="106.35" x2="481.4096" y1="396.0069" y2="396.0069"/><g data-visibility-modifier="PUBLIC_METHOD"><ellipse cx="116.35" cy="409.6553" fill="#84BE84" rx="3" ry="3" style="stroke:#038048;stroke-width:1;"/></g><text fill="#000000" font-family="sans-serif" font-size="14" lengthAdjust="spacing" textLength="243.7695" x="125.35" y="413.002">generateQuestion(): MathQuestion</text><g data-visibility-modifier="PUBLIC_METHOD"><ellipse cx="116.35" cy="425.9522" fill="#84BE84" rx="3" ry="3" style="stroke:#038048;stroke-width:1;"/></g><text fill="#000000" font-family="sans-serif" font-size="14" lengthAdjust="spacing" textLength="351.0596" x="125.35" y="429.2989">verifyAnswer(questionId: string, answer: int): bool</text></g><!--class GameManager--><g class="entity" data-qualified-name="GameManager" data-source-line="8" id="ent0003"><rect fill="#F1F1F1" height="210.9688" rx="2.5" ry="2.5" style="stroke:#181818;stroke-width:0.5;" width="349.7432" x="650.01" y="44.2969"/><ellipse cx="769.1091" cy="60.2969" fill="#ADD1B2" rx="11" ry="11" style="stroke:#181818;stroke-width:1;"/><path d="M772.0779,65.9375 Q771.4997,66.2344 770.8591,66.375 Q770.2185,66.5313 769.5154,66.5313 Q767.0154,66.5313 765.6872,64.8906 Q764.3747,63.2344 764.3747,60.1094 Q764.3747,56.9844 765.6872,55.3281 Q767.0154,53.6719 769.5154,53.6719 Q770.2185,53.6719 770.8591,53.8281 Q771.5154,53.9844 772.0779,54.2813 L772.0779,57 Q771.4529,56.4219 770.8591,56.1563 Q770.2654,55.875 769.6404,55.875 Q768.2966,55.875 767.6091,56.9531 Q766.9216,58.0156 766.9216,60.1094 Q766.9216,62.2031 767.6091,63.2813 Q768.2966,64.3438 769.6404,64.3438 Q770.2654,64.3438 770.8591,64.0781 Q771.4529,63.7969 772.0779,63.2188 L772.0779,65.9375 Z " fill="#000000"/><text fill="#000000" font-family="sans-serif" font-size="14" lengthAdjust="spacing" textLength="103.0449" x="789.6091" y="65.1436">GameManager</text><line style="stroke:#181818;stroke-width:0.5;" x1="651.01" x2="998.7532" y1="76.2969" y2="76.2969"/><g data-visibility-modifier="PRIVATE_FIELD"><rect fill="none" height="6" style="stroke:#C82930;stroke-width:1;" width="6" x="658.01" y="86.9453"/></g><text fill="#000000" font-family="sans-serif" font-size="14" lengthAdjust="spacing" textLength="72.707" x="670.01" y="93.292">field: Field</text><g data-visibility-modifier="PRIVATE_FIELD"><rect fill="none" height="6" style="stroke:#C82930;stroke-width:1;" width="6" x="658.01" y="103.2422"/></g><text fill="#000000" font-family="sans-serif" font-size="14" lengthAdjust="spacing" textLength="191.0234" x="670.01" y="109.5889">scoreSystem: ScoreSystem</text><g data-visibility-modifier="PRIVATE_FIELD"><rect fill="none" height="6" style="stroke:#C82930;stroke-width:1;" width="6" x="658.01" y="119.5391"/></g><text fill="#000000" font-family="sans-serif" font-size="14" lengthAdjust="spacing" textLength="103.6328" x="670.01" y="125.8857">saveCubes: int</text><g data-visibility-modifier="PRIVATE_FIELD"><rect fill="none" height="6" style="stroke:#C82930;stroke-width:1;" width="6" x="658.01" y="135.8359"/></g><text fill="#000000" font-family="sans-serif" font-size="14" lengthAdjust="spacing" textLength="164.6777" x="670.01" y="142.1826">gameState: GameState</text><g data-visibility-modifier="PRIVATE_FIELD"><rect fill="none" height="6" style="stroke:#C82930;stroke-width:1;" width="6" x="658.01" y="152.1328"/></g><text fill="#000000" font-family="sans-serif" font-size="14" lengthAdjust="spacing" textLength="169.7568" x="670.01" y="158.4795">eduService: IEduService</text><line style="stroke:#181818;stroke-width:0.5;" x1="651.01" x2="998.7532" y1="165.7813" y2="165.7813"/><g data-visibility-modifier="PUBLIC_METHOD"><ellipse cx="661.01" cy="179.4297" fill="#84BE84" rx="3" ry="3" style="stroke:#038048;stroke-width:1;"/></g><text fill="#000000" font-family="sans-serif" font-size="14" lengthAdjust="spacing" textLength="323.7432" x="670.01" y="182.7764">placeFigure(figure: Figure, pos: Position): bool</text><g data-visibility-modifier="PUBLIC_METHOD"><ellipse cx="661.01" cy="195.7266" fill="#84BE84" rx="3" ry="3" style="stroke:#038048;stroke-width:1;"/></g><text fill="#000000" font-family="sans-serif" font-size="14" lengthAdjust="spacing" textLength="119.0684" x="670.01" y="199.0732">onNoMovesLeft()</text><g data-visibility-modifier="PUBLIC_METHOD"><ellipse cx="661.01" cy="212.0234" fill="#84BE84" rx="3" ry="3" style="stroke:#038048;stroke-width:1;"/></g><text fill="#000000" font-family="sans-serif" font-size="14" lengthAdjust="spacing" textLength="231.7246" x="670.01" y="215.3701">onMathAnswer(answer: int): void</text><g data-visibility-modifier="PUBLIC_METHOD"><ellipse cx="661.01" cy="228.3203" fill="#84BE84" rx="3" ry="3" style="stroke:#038048;stroke-width:1;"/></g><text fill="#000000" font-family="sans-serif" font-size="14" lengthAdjust="spacing" textLength="233.5566" x="670.01" y="231.667">useSaveCube(cell: Position): bool</text><g data-visibility-modifier="PUBLIC_METHOD"><ellipse cx="661.01" cy="244.6172" fill="#84BE84" rx="3" ry="3" style="stroke:#038048;stroke-width:1;"/></g><text fill="#000000" font-family="sans-serif" font-size="14" lengthAdjust="spacing" textLength="99.5791" x="670.01" y="247.9639">restartGame()</text></g><!--class GameState--><g class="entity" data-qualified-name="GameState" data-source-line="21" id="ent0004"><rect fill="#F1F1F1" height="96.8906" rx="2.5" ry="2.5" style="stroke:#181818;stroke-width:0.5;" width="189.6387" x="517.07" y="347.8569"/><ellipse cx="568.2712" cy="363.8569" fill="#EB937F" rx="11" ry="11" style="stroke:#181818;stroke-width:1;"/><path d="M572.3805,369.8569 L564.6618,369.8569 L564.6618,357.4663 L572.3805,357.4663 L572.3805,359.6225 L567.1149,359.6225 L567.1149,362.2944 L571.8805,362.2944 L571.8805,364.4506 L567.1149,364.4506 L567.1149,367.7006 L572.3805,367.7006 L572.3805,369.8569 Z " fill="#000000"/><text fill="#000000" font-family="sans-serif" font-size="14" lengthAdjust="spacing" textLength="78.7363" x="588.7712" y="368.7036">GameState</text><line style="stroke:#181818;stroke-width:0.5;" x1="518.07" x2="705.7087" y1="379.8569" y2="379.8569"/><text fill="#000000" font-family="sans-serif" font-size="14" lengthAdjust="spacing" textLength="59.8213" x="523.07" y="396.852">PLAYING</text><text fill="#000000" font-family="sans-serif" font-size="14" lengthAdjust="spacing" textLength="85.2373" x="523.07" y="413.1489">LOSS_MENU</text><text fill="#000000" font-family="sans-serif" font-size="14" lengthAdjust="spacing" textLength="177.6387" x="523.07" y="429.4457">WAITING_MATH_ANSWER</text><line style="stroke:#181818;stroke-width:0.5;" x1="518.07" x2="705.7087" y1="436.7475" y2="436.7475"/></g><!--class Field--><g class="entity" data-qualified-name="Field" data-source-line="27" id="ent0005"><rect fill="#F1F1F1" height="162.0781" rx="2.5" ry="2.5" style="stroke:#181818;stroke-width:0.5;" width="593.5742" x="742.1" y="315.2569"/><ellipse cx="1017.9711" cy="331.2569" fill="#ADD1B2" rx="11" ry="11" style="stroke:#181818;stroke-width:1;"/><path d="M1020.9398,336.8975 Q1020.3617,337.1944 1019.7211,337.335 Q1019.0805,337.4913 1018.3773,337.4913 Q1015.8773,337.4913 1014.5492,335.8506 Q1013.2367,334.1944 1013.2367,331.0694 Q1013.2367,327.9444 1014.5492,326.2881 Q1015.8773,324.6319 1018.3773,324.6319 Q1019.0805,324.6319 1019.7211,324.7881 Q1020.3773,324.9444 1020.9398,325.2413 L1020.9398,327.96 Q1020.3148,327.3819 1019.7211,327.1163 Q1019.1273,326.835 1018.5023,326.835 Q1017.1586,326.835 1016.4711,327.9131 Q1015.7836,328.9756 1015.7836,331.0694 Q1015.7836,333.1631 1016.4711,334.2413 Q1017.1586,335.3038 1018.5023,335.3038 Q1019.1273,335.3038 1019.7211,335.0381 Q1020.3148,334.7569 1020.9398,334.1788 L1020.9398,336.8975 Z " fill="#000000"/><text fill="#000000" font-family="sans-serif" font-size="14" lengthAdjust="spacing" textLength="33.332" x="1038.4711" y="336.1036">Field</text><line style="stroke:#181818;stroke-width:0.5;" x1="743.1" x2="1334.6742" y1="347.2569" y2="347.2569"/><g data-visibility-modifier="PRIVATE_FIELD"><rect fill="none" height="6" style="stroke:#C82930;stroke-width:1;" width="6" x="750.1" y="357.9053"/></g><text fill="#000000" font-family="sans-serif" font-size="14" lengthAdjust="spacing" textLength="259.1025" x="762.1" y="364.252">width: int  ' TODO: &#1091;&#1090;&#1086;&#1095;&#1085;&#1080;&#1090;&#1100; &#1088;&#1072;&#1079;&#1084;&#1077;&#1088;</text><g data-visibility-modifier="PRIVATE_FIELD"><rect fill="none" height="6" style="stroke:#C82930;stroke-width:1;" width="6" x="750.1" y="374.2022"/></g><text fill="#000000" font-family="sans-serif" font-size="14" lengthAdjust="spacing" textLength="72.0439" x="762.1" y="380.5489">height: int</text><g data-visibility-modifier="PRIVATE_FIELD"><rect fill="none" height="6" style="stroke:#C82930;stroke-width:1;" width="6" x="750.1" y="390.4991"/></g><text fill="#000000" font-family="sans-serif" font-size="14" lengthAdjust="spacing" textLength="84.6016" x="762.1" y="396.8457">grid: Cell[][]</text><line style="stroke:#181818;stroke-width:0.5;" x1="743.1" x2="1334.6742" y1="404.1475" y2="404.1475"/><g data-visibility-modifier="PUBLIC_METHOD"><ellipse cx="753.1" cy="417.7959" fill="#84BE84" rx="3" ry="3" style="stroke:#038048;stroke-width:1;"/></g><text fill="#000000" font-family="sans-serif" font-size="14" lengthAdjust="spacing" textLength="304.377" x="762.1" y="421.1426">canPlace(figure: Figure, pos: Position): bool</text><g data-visibility-modifier="PUBLIC_METHOD"><ellipse cx="753.1" cy="434.0928" fill="#84BE84" rx="3" ry="3" style="stroke:#038048;stroke-width:1;"/></g><text fill="#000000" font-family="sans-serif" font-size="14" lengthAdjust="spacing" textLength="323.4629" x="762.1" y="437.4395">placeFigure(figure: Figure, pos: Position): void</text><g data-visibility-modifier="PUBLIC_METHOD"><ellipse cx="753.1" cy="450.3897" fill="#84BE84" rx="3" ry="3" style="stroke:#038048;stroke-width:1;"/></g><text fill="#000000" font-family="sans-serif" font-size="14" lengthAdjust="spacing" textLength="567.5742" x="762.1" y="453.7364">clearFullRowsAndColumns(): int   ' &#1074;&#1086;&#1079;&#1074;&#1088;&#1072;&#1097;&#1072;&#1077;&#1090; &#1082;&#1086;&#1083;&#1080;&#1095;&#1077;&#1089;&#1090;&#1074;&#1086; &#1086;&#1095;&#1080;&#1097;&#1077;&#1085;&#1085;&#1099;&#1093; &#1082;&#1083;&#1077;&#1090;&#1086;&#1082;</text><g data-visibility-modifier="PUBLIC_METHOD"><ellipse cx="753.1" cy="466.6866" fill="#84BE84" rx="3" ry="3" style="stroke:#038048;stroke-width:1;"/></g><text fill="#000000" font-family="sans-serif" font-size="14" lengthAdjust="spacing" textLength="46.6895" x="762.1" y="470.0332">reset()</text></g><!--class Cell--><g class="entity" data-qualified-name="Cell" data-source-line="37" id="ent0006"><rect fill="#F1F1F1" height="64.2969" rx="2.5" ry="2.5" style="stroke:#181818;stroke-width:0.5;" width="128.1836" x="974.79" y="561.7869"/><ellipse cx="1021.5478" cy="577.7869" fill="#ADD1B2" rx="11" ry="11" style="stroke:#181818;stroke-width:1;"/><path d="M1024.5166,583.4275 Q1023.9384,583.7244 1023.2978,583.865 Q1022.6572,584.0213 1021.9541,584.0213 Q1019.4541,584.0213 1018.1259,582.3806 Q1016.8134,580.7244 1016.8134,577.5994 Q1016.8134,574.4744 1018.1259,572.8181 Q1019.4541,571.1619 1021.9541,571.1619 Q1022.6572,571.1619 1023.2978,571.3181 Q1023.9541,571.4744 1024.5166,571.7713 L1024.5166,574.49 Q1023.8916,573.9119 1023.2978,573.6463 Q1022.7041,573.365 1022.0791,573.365 Q1020.7353,573.365 1020.0478,574.4431 Q1019.3603,575.5056 1019.3603,577.5994 Q1019.3603,579.6931 1020.0478,580.7713 Q1020.7353,581.8338 1022.0791,581.8338 Q1022.7041,581.8338 1023.2978,581.5681 Q1023.8916,581.2869 1024.5166,580.7088 L1024.5166,583.4275 Z " fill="#000000"/><text fill="#000000" font-family="sans-serif" font-size="14" lengthAdjust="spacing" textLength="26.168" x="1042.0478" y="582.6336">Cell</text><line style="stroke:#181818;stroke-width:0.5;" x1="975.79" x2="1101.9736" y1="593.7869" y2="593.7869"/><g data-visibility-modifier="PRIVATE_FIELD"><rect fill="none" height="6" style="stroke:#C82930;stroke-width:1;" width="6" x="982.79" y="604.4353"/></g><text fill="#000000" font-family="sans-serif" font-size="14" lengthAdjust="spacing" textLength="102.1836" x="994.79" y="610.782">occupied: bool</text><line style="stroke:#181818;stroke-width:0.5;" x1="975.79" x2="1101.9736" y1="618.0838" y2="618.0838"/></g><!--class Figure--><g class="entity" data-qualified-name="Figure" data-source-line="41" id="ent0007"><rect fill="#F1F1F1" height="80.5938" rx="2.5" ry="2.5" style="stroke:#181818;stroke-width:0.5;" width="390.9229" x="1034.42" y="109.4769"/><ellipse cx="1203.5958" cy="125.4769" fill="#ADD1B2" rx="11" ry="11" style="stroke:#181818;stroke-width:1;"/><path d="M1206.5645,131.1175 Q1205.9864,131.4144 1205.3458,131.555 Q1204.7052,131.7113 1204.002,131.7113 Q1201.502,131.7113 1200.1739,130.0706 Q1198.8614,128.4144 1198.8614,125.2894 Q1198.8614,122.1644 1200.1739,120.5081 Q1201.502,118.8519 1204.002,118.8519 Q1204.7052,118.8519 1205.3458,119.0081 Q1206.002,119.1644 1206.5645,119.4613 L1206.5645,122.18 Q1205.9395,121.6019 1205.3458,121.3363 Q1204.752,121.055 1204.127,121.055 Q1202.7833,121.055 1202.0958,122.1331 Q1201.4083,123.1956 1201.4083,125.2894 Q1201.4083,127.3831 1202.0958,128.4613 Q1202.7833,129.5238 1204.127,129.5238 Q1204.752,129.5238 1205.3458,129.2581 Q1205.9395,128.9769 1206.5645,128.3988 L1206.5645,131.1175 Z " fill="#000000"/><text fill="#000000" font-family="sans-serif" font-size="14" lengthAdjust="spacing" textLength="44.0713" x="1224.0958" y="130.3236">Figure</text><line style="stroke:#181818;stroke-width:0.5;" x1="1035.42" x2="1424.3429" y1="141.4769" y2="141.4769"/><g data-visibility-modifier="PRIVATE_FIELD"><rect fill="none" height="6" style="stroke:#C82930;stroke-width:1;" width="6" x="1042.42" y="152.1253"/></g><text fill="#000000" font-family="sans-serif" font-size="14" lengthAdjust="spacing" textLength="364.9229" x="1054.42" y="158.472">shape: List&lt;Point&gt;   ' &#1086;&#1090;&#1085;&#1086;&#1089;&#1080;&#1090;&#1077;&#1083;&#1100;&#1085;&#1099;&#1077; &#1082;&#1086;&#1086;&#1088;&#1076;&#1080;&#1085;&#1072;&#1090;&#1099;</text><line style="stroke:#181818;stroke-width:0.5;" x1="1035.42" x2="1424.3429" y1="165.7738" y2="165.7738"/><g data-visibility-modifier="PUBLIC_METHOD"><ellipse cx="1045.42" cy="179.4222" fill="#84BE84" rx="3" ry="3" style="stroke:#038048;stroke-width:1;"/></g><text fill="#000000" font-family="sans-serif" font-size="14" lengthAdjust="spacing" textLength="106.6543" x="1054.42" y="182.7689">rotate(): Figure</text></g><!--class ScoreSystem--><g class="entity" data-qualified-name="ScoreSystem" data-source-line="46" id="ent0008"><rect fill="#F1F1F1" height="129.4844" rx="2.5" ry="2.5" style="stroke:#181818;stroke-width:0.5;" width="428.8555" x="1370.46" y="331.5569"/><ellipse cx="1534.7754" cy="347.5569" fill="#ADD1B2" rx="11" ry="11" style="stroke:#181818;stroke-width:1;"/><path d="M1537.7442,353.1975 Q1537.1661,353.4944 1536.5254,353.635 Q1535.8848,353.7913 1535.1817,353.7913 Q1532.6817,353.7913 1531.3536,352.1506 Q1530.0411,350.4944 1530.0411,347.3694 Q1530.0411,344.2444 1531.3536,342.5881 Q1532.6817,340.9319 1535.1817,340.9319 Q1535.8848,340.9319 1536.5254,341.0881 Q1537.1817,341.2444 1537.7442,341.5413 L1537.7442,344.26 Q1537.1192,343.6819 1536.5254,343.4163 Q1535.9317,343.135 1535.3067,343.135 Q1533.9629,343.135 1533.2754,344.2131 Q1532.5879,345.2756 1532.5879,347.3694 Q1532.5879,349.4631 1533.2754,350.5413 Q1533.9629,351.6038 1535.3067,351.6038 Q1535.9317,351.6038 1536.5254,351.3381 Q1537.1192,351.0569 1537.7442,350.4788 L1537.7442,353.1975 Z " fill="#000000"/><text fill="#000000" font-family="sans-serif" font-size="14" lengthAdjust="spacing" textLength="91.7246" x="1555.2754" y="352.4036">ScoreSystem</text><line style="stroke:#181818;stroke-width:0.5;" x1="1371.46" x2="1798.3155" y1="363.5569" y2="363.5569"/><g data-visibility-modifier="PRIVATE_FIELD"><rect fill="none" height="6" style="stroke:#C82930;stroke-width:1;" width="6" x="1378.46" y="374.2053"/></g><text fill="#000000" font-family="sans-serif" font-size="14" lengthAdjust="spacing" textLength="117.9951" x="1390.46" y="380.552">currentScore: int</text><g data-visibility-modifier="PRIVATE_FIELD"><rect fill="none" height="6" style="stroke:#C82930;stroke-width:1;" width="6" x="1378.46" y="390.5022"/></g><text fill="#000000" font-family="sans-serif" font-size="14" lengthAdjust="spacing" textLength="115.6777" x="1390.46" y="396.8489">currentLevel: int</text><line style="stroke:#181818;stroke-width:0.5;" x1="1371.46" x2="1798.3155" y1="404.1506" y2="404.1506"/><g data-visibility-modifier="PUBLIC_METHOD"><ellipse cx="1381.46" cy="417.7991" fill="#84BE84" rx="3" ry="3" style="stroke:#038048;stroke-width:1;"/></g><text fill="#000000" font-family="sans-serif" font-size="14" lengthAdjust="spacing" textLength="402.8555" x="1390.46" y="421.1457">addPoints(points: int): int   ' &#1074;&#1086;&#1079;&#1074;&#1088;&#1072;&#1097;&#1072;&#1077;&#1090; &#1085;&#1086;&#1074;&#1099;&#1081; &#1091;&#1088;&#1086;&#1074;&#1077;&#1085;&#1100;</text><g data-visibility-modifier="PUBLIC_METHOD"><ellipse cx="1381.46" cy="434.0959" fill="#84BE84" rx="3" ry="3" style="stroke:#038048;stroke-width:1;"/></g><text fill="#000000" font-family="sans-serif" font-size="14" lengthAdjust="spacing" textLength="318.3428" x="1390.46" y="437.4426">getProgress(): int   ' 0..100, &#1082;&#1072;&#1082; &#1074; &#1072;&#1085;&#1072;&#1083;&#1080;&#1090;&#1080;&#1082;&#1077;</text><g data-visibility-modifier="PUBLIC_METHOD"><ellipse cx="1381.46" cy="450.3928" fill="#84BE84" rx="3" ry="3" style="stroke:#038048;stroke-width:1;"/></g><text fill="#000000" font-family="sans-serif" font-size="14" lengthAdjust="spacing" textLength="46.6895" x="1390.46" y="453.7395">reset()</text></g><!--class MathQuestion--><g class="entity" data-qualified-name="MathQuestion" data-source-line="54" id="ent0009"><rect fill="#F1F1F1" height="96.8906" rx="2.5" ry="2.5" style="stroke:#181818;stroke-width:0.5;" width="154.5566" x="1460.61" y="101.3269"/><ellipse cx="1486.8235" cy="117.3269" fill="#ADD1B2" rx="11" ry="11" style="stroke:#181818;stroke-width:1;"/><path d="M1489.7923,122.9675 Q1489.2142,123.2644 1488.5735,123.405 Q1487.9329,123.5612 1487.2298,123.5612 Q1484.7298,123.5612 1483.4017,121.9206 Q1482.0892,120.2644 1482.0892,117.1394 Q1482.0892,114.0144 1483.4017,112.3581 Q1484.7298,110.7019 1487.2298,110.7019 Q1487.9329,110.7019 1488.5735,110.8581 Q1489.2298,111.0144 1489.7923,111.3112 L1489.7923,114.03 Q1489.1673,113.4519 1488.5735,113.1862 Q1487.9798,112.905 1487.3548,112.905 Q1486.011,112.905 1485.3235,113.9831 Q1484.636,115.0456 1484.636,117.1394 Q1484.636,119.2331 1485.3235,120.3112 Q1486.011,121.3737 1487.3548,121.3737 Q1487.9798,121.3737 1488.5735,121.1081 Q1489.1673,120.8269 1489.7923,120.2487 L1489.7923,122.9675 Z " fill="#000000"/><text fill="#000000" font-family="sans-serif" font-size="14" lengthAdjust="spacing" textLength="97.6377" x="1503.3154" y="122.1736">MathQuestion</text><line style="stroke:#181818;stroke-width:0.5;" x1="1461.61" x2="1614.1666" y1="133.3269" y2="133.3269"/><g data-visibility-modifier="PUBLIC_FIELD"><ellipse cx="1471.61" cy="146.9753" fill="none" rx="3" ry="3" style="stroke:#038048;stroke-width:1;"/></g><text fill="#000000" font-family="sans-serif" font-size="14" lengthAdjust="spacing" textLength="62.1318" x="1480.61" y="150.322">id: string</text><g data-visibility-modifier="PUBLIC_FIELD"><ellipse cx="1471.61" cy="163.2722" fill="none" rx="3" ry="3" style="stroke:#038048;stroke-width:1;"/></g><text fill="#000000" font-family="sans-serif" font-size="14" lengthAdjust="spacing" textLength="77.2324" x="1480.61" y="166.6189">text: string</text><g data-visibility-modifier="PUBLIC_FIELD"><ellipse cx="1471.61" cy="179.5691" fill="none" rx="3" ry="3" style="stroke:#038048;stroke-width:1;"/></g><text fill="#000000" font-family="sans-serif" font-size="14" lengthAdjust="spacing" textLength="128.5566" x="1480.61" y="182.9157">correctAnswer: int</text><line style="stroke:#181818;stroke-width:0.5;" x1="1461.61" x2="1614.1666" y1="190.2175" y2="190.2175"/></g><!--class LocalMathAI--><g class="entity" data-qualified-name="LocalMathAI" data-source-line="60" id="ent0010"><rect fill="#F1F1F1" height="113.1875" rx="2.5" ry="2.5" style="stroke:#181818;stroke-width:0.5;" width="269.7695" x="7" y="537.3369"/><ellipse cx="95.0059" cy="553.3369" fill="#ADD1B2" rx="11" ry="11" style="stroke:#181818;stroke-width:1;"/><path d="M97.9746,558.9775 Q97.3965,559.2744 96.7559,559.415 Q96.1152,559.5713 95.4121,559.5713 Q92.9121,559.5713 91.584,557.9306 Q90.2715,556.2744 90.2715,553.1494 Q90.2715,550.0244 91.584,548.3681 Q92.9121,546.7119 95.4121,546.7119 Q96.1152,546.7119 96.7559,546.8681 Q97.4121,547.0244 97.9746,547.3213 L97.9746,550.04 Q97.3496,549.4619 96.7559,549.1963 Q96.1621,548.915 95.5371,548.915 Q94.1934,548.915 93.5059,549.9931 Q92.8184,551.0556 92.8184,553.1494 Q92.8184,555.2431 93.5059,556.3213 Q94.1934,557.3838 95.5371,557.3838 Q96.1621,557.3838 96.7559,557.1181 Q97.3496,556.8369 97.9746,556.2588 L97.9746,558.9775 Z " fill="#000000"/><text fill="#000000" font-family="sans-serif" font-size="14" lengthAdjust="spacing" textLength="85.2578" x="115.5059" y="558.1836">LocalMathAI</text><line style="stroke:#181818;stroke-width:0.5;" x1="8" x2="275.7695" y1="569.3369" y2="569.3369"/><g data-visibility-modifier="PRIVATE_FIELD"><rect fill="none" height="6" style="stroke:#C82930;stroke-width:1;" width="6" x="15" y="579.9853"/></g><text fill="#000000" font-family="sans-serif" font-size="14" lengthAdjust="spacing" textLength="110.0586" x="27" y="586.332">minNumber: int</text><g data-visibility-modifier="PRIVATE_FIELD"><rect fill="none" height="6" style="stroke:#C82930;stroke-width:1;" width="6" x="15" y="596.2822"/></g><text fill="#000000" font-family="sans-serif" font-size="14" lengthAdjust="spacing" textLength="114.1602" x="27" y="602.6289">maxNumber: int</text><line style="stroke:#181818;stroke-width:0.5;" x1="8" x2="275.7695" y1="609.9306" y2="609.9306"/><g data-visibility-modifier="PUBLIC_METHOD"><ellipse cx="18" cy="623.5791" fill="#84BE84" rx="3" ry="3" style="stroke:#038048;stroke-width:1;"/></g><text fill="#000000" font-family="sans-serif" font-size="14" lengthAdjust="spacing" textLength="243.7695" x="27" y="626.9257">generateQuestion(): MathQuestion</text><g data-visibility-modifier="PUBLIC_METHOD"><ellipse cx="18" cy="639.8759" fill="#84BE84" rx="3" ry="3" style="stroke:#038048;stroke-width:1;"/></g><text fill="#000000" font-family="sans-serif" font-size="14" lengthAdjust="spacing" textLength="213.5615" x="27" y="643.2226">verifyAnswer(id, answer): bool</text></g><!--class RemoteMathAI--><g class="entity" data-qualified-name="RemoteMathAI" data-source-line="67" id="ent0012"><rect fill="#F1F1F1" height="96.8906" rx="2.5" ry="2.5" style="stroke:#181818;stroke-width:0.5;" width="269.7695" x="312" y="545.4869"/><ellipse cx="390.9482" cy="561.4869" fill="#ADD1B2" rx="11" ry="11" style="stroke:#181818;stroke-width:1;"/><path d="M393.917,567.1275 Q393.3389,567.4244 392.6982,567.565 Q392.0576,567.7213 391.3545,567.7213 Q388.8545,567.7213 387.5264,566.0806 Q386.2139,564.4244 386.2139,561.2994 Q386.2139,558.1744 387.5264,556.5181 Q388.8545,554.8619 391.3545,554.8619 Q392.0576,554.8619 392.6982,555.0181 Q393.3545,555.1744 393.917,555.4713 L393.917,558.19 Q393.292,557.6119 392.6982,557.3463 Q392.1045,557.065 391.4795,557.065 Q390.1357,557.065 389.4482,558.1431 Q388.7607,559.2056 388.7607,561.2994 Q388.7607,563.3931 389.4482,564.4713 Q390.1357,565.5338 391.4795,565.5338 Q392.1045,565.5338 392.6982,565.2681 Q393.292,564.9869 393.917,564.4088 L393.917,567.1275 Z " fill="#000000"/><text fill="#000000" font-family="sans-serif" font-size="14" lengthAdjust="spacing" textLength="103.373" x="411.4482" y="566.3336">RemoteMathAI</text><line style="stroke:#181818;stroke-width:0.5;" x1="313" x2="580.7695" y1="577.4869" y2="577.4869"/><g data-visibility-modifier="PRIVATE_FIELD"><rect fill="none" height="6" style="stroke:#C82930;stroke-width:1;" width="6" x="320" y="588.1353"/></g><text fill="#000000" font-family="sans-serif" font-size="14" lengthAdjust="spacing" textLength="133.0205" x="332" y="594.482">apiEndpoint: string</text><line style="stroke:#181818;stroke-width:0.5;" x1="313" x2="580.7695" y1="601.7838" y2="601.7838"/><g data-visibility-modifier="PUBLIC_METHOD"><ellipse cx="323" cy="615.4322" fill="#84BE84" rx="3" ry="3" style="stroke:#038048;stroke-width:1;"/></g><text fill="#000000" font-family="sans-serif" font-size="14" lengthAdjust="spacing" textLength="243.7695" x="332" y="618.7789">generateQuestion(): MathQuestion</text><g data-visibility-modifier="PUBLIC_METHOD"><ellipse cx="323" cy="631.7291" fill="#84BE84" rx="3" ry="3" style="stroke:#038048;stroke-width:1;"/></g><text fill="#000000" font-family="sans-serif" font-size="14" lengthAdjust="spacing" textLength="213.5615" x="332" y="635.0757">verifyAnswer(id, answer): bool</text></g><!--reverse link IEduService to LocalMathAI--><g class="link" data-entity-1="ent0002" data-entity-2="ent0010" data-link-type="extension" data-source-line="61" id="lnk11"><path d="M252.0845,451.0995 C229.6945,479.9095 210.13,505.0969 185.27,537.0969" fill="none" id="IEduService-backto-LocalMathAI" style="stroke:#181818;stroke-width:1;stroke-dasharray:7,7;"/><polygon fill="none" points="263.13,436.8869,247.347,447.4176,256.8221,454.7813,263.13,436.8869" style="stroke:#181818;stroke-width:1;"/></g><!--reverse link IEduService to RemoteMathAI--><g class="link" data-entity-1="ent0002" data-entity-2="ent0012" data-link-type="extension" data-source-line="68" id="lnk13"><path d="M335.9395,451.0651 C360.3895,482.3251 383.5,511.8869 409.48,545.1069" fill="none" id="IEduService-backto-RemoteMathAI" style="stroke:#181818;stroke-width:1;stroke-dasharray:7,7;"/><polygon fill="none" points="324.85,436.8869,331.2134,454.7616,340.6656,447.3686,324.85,436.8869" style="stroke:#181818;stroke-width:1;"/></g><!--link GameManager to IEduService--><g class="link" data-entity-1="ent0003" data-entity-2="ent0002" data-link-type="dependency" data-source-line="73" id="lnk14"><path codeLine="73" d="M649.54,231.5169 C559.07,273.1869 458.1898,319.6369 385.5198,353.1069" fill="none" id="GameManager-to-IEduService" style="stroke:#181818;stroke-width:1;"/><polygon fill="#181818" points="380.07,355.6169,389.918,355.485,384.6115,353.5252,386.5713,348.2187,380.07,355.6169" style="stroke:#181818;stroke-width:1;"/></g><!--reverse link GameManager to Field--><g class="link" data-entity-1="ent0003" data-entity-2="ent0005" data-link-type="composition" data-source-line="74" id="lnk15"><path codeLine="74" d="M924.4721,264.5678 C941.8321,284.4078 951.83,295.8369 968.41,314.7769" fill="none" id="GameManager-backto-Field" style="stroke:#181818;stroke-width:1;"/><polygon fill="#181818" points="916.57,255.5369,917.5107,262.6864,924.4721,264.5678,923.5313,257.4183,916.57,255.5369" style="stroke:#181818;stroke-width:1;"/></g><!--reverse link GameManager to ScoreSystem--><g class="link" data-entity-1="ent0003" data-entity-2="ent0008" data-link-type="composition" data-source-line="75" id="lnk16"><path codeLine="75" d="M1011.3127,253.426 C1016.9027,255.646 1011.33,253.3169 1016.88,255.2569 C1160.02,305.4969 1206.07,277.0769 1352.88,315.2569 C1370.93,319.9569 1389.58,325.3769 1408.1,331.1469" fill="none" id="GameManager-backto-ScoreSystem" style="stroke:#181818;stroke-width:1;"/><polygon fill="#181818" points="1000.16,248.9969,1004.26,254.929,1011.3127,253.426,1007.2127,247.4939,1000.16,248.9969" style="stroke:#181818;stroke-width:1;"/></g><!--reverse link Field to Cell--><g class="link" data-entity-1="ent0005" data-entity-2="ent0006" data-link-type="aggregation" data-source-line="76" id="lnk17"><path codeLine="76" d="M1038.88,489.7169 C1038.88,519.2269 1038.88,538.9169 1038.88,561.5769" fill="none" id="Field-backto-Cell" style="stroke:#181818;stroke-width:1;"/><polygon fill="none" points="1038.88,477.7169,1034.88,483.7169,1038.88,489.7169,1042.88,483.7169,1038.88,477.7169" style="stroke:#181818;stroke-width:1;"/></g><!--link GameManager to GameState--><g class="link" data-entity-1="ent0003" data-entity-2="ent0004" data-link-type="dependency" data-source-line="77" id="lnk18"><path codeLine="77" d="M733.63,255.5369 C705.74,287.5569 680.3605,316.6822 657.4905,342.9422" fill="none" id="GameManager-to-GameState" style="stroke:#181818;stroke-width:1;"/><polygon fill="#181818" points="653.55,347.4669,662.4772,343.307,656.8338,343.6964,656.4444,338.0529,653.55,347.4669" style="stroke:#181818;stroke-width:1;"/></g><?plantuml-src hLLHJzim47xlh_3Rog28lLOJKbSAgzIMZZAX2I5aacjhBOaxsocWQH9qcj04FmQXLMDbz3Sa_sXdnqtICgOnhG-rVNVstVTzzaKnvG6fUbHAii5eJr2Vb4W3JcZfbSUTzv8KNK6xQgbGO842qQKEa7hD3JiWXWpd7mi4Vyka1m48gk1D258n7XINogH9LN-sjc534AnxMWdaCOZY1-khksKYbM11RuLGuoeJp8Od777k5JuL2eufS8lwqAG1xO6mUKkaoy33xPjwi2RfS06TKwd0BvDEjfYvwH2guH58ayGQUtXqHs7zPPF5JAqBKh3bF78BQE0X8vki5meeTisWYz7Z2XbmpD7caccGCpJ9DXwqU9CFGJQWgufBgLLJPjcPPsB8cMkZGWaTYw7eWESzbaCWkrGeZGSp88iGX7u6prBORbJUrLjRPjxOxdGEcxNMMxFQgzHtqNFOhEo-FgoqEdkrdKmBGtYgmZ5pLT-KIiWpihkziLqcyUTu54tZY-W-ker7yHM9pwBhw7lqCnh7PtPV7rYlh-Q440pbh2Ai_OFz0ul4eK5Ry_mKXfyYJ8vSnmCgDaFFs-77iXAuLUw5VY3rTJRe45vq4qqHnut64tz5JEDuHA896kyGwGKkpn4v1X43_nPZnaZ2VNmPVz5nTte3HayodK0b2YNSQlGfjTnnmW43T_4n95ZICDcd0qJOO5AzR7CiTJsfTOgfxl7_N8k0TTp5LxgIQ9nKF4KGtw9R3Bb6ZIvd5N5zGJJc94kMDVUSqjHEA0G4ohZoKbfx0uRWPVPbGbtNL2YB0pFChlYV-KKGQBgCVkYBTQONcjNuAkq_gYru3xcSqsfjTVN5sjgA1diTJV1eWYE2DLAD4FWa6ZycGxvzfNsEfRtA6XISg0KJ4Y70KPNi0MU7DhX3FVFAwuJv0mzyf4Z-fgMMYC-2LkWVpOwmHdgoQFotvilSMRDzq6TtmESA_gv8Ec2rm3L2Bh3mtuhAj_rIQNsk2UTzpqib-nrOjEO_0adZucZLp-p1uMbx_0K0?></g></svg>