<svg xmlns="http://www.w3.org/2000/svg" xmlns:xlink="http://www.w3.org/1999/xlink" contentStyleType="text/css" data-diagram-type="STATE" height="874px" preserveAspectRatio="none" style="width:1180px;height:874px;background:#FFFFFF;" version="1.1" viewBox="0 0 1180 874" width="1180px" zoomAndPan="magnify"><?plantuml 1.2026.4beta2?><defs/><g><g class="title" data-source-line="1"><text fill="#000000" font-family="sans-serif" font-size="14" font-weight="700" lengthAdjust="spacing" textLength="222.4824" x="475.7037" y="22.9951">State Machine - Lexa-Blocks</text></g><path d="M228.5,140.2969 L488.1452,140.2969 A12.5,12.5 0 0 1 500.6452,152.7969 L500.6452,166.5938 L216,166.5938 L216,152.7969 A12.5,12.5 0 0 1 228.5,140.2969" fill="#F1F1F1"/><rect fill="none" height="129.5" rx="12.5" ry="12.5" style="stroke:#181818;stroke-width:0.5;" width="284.6452" x="216" y="140.2969"/><line style="stroke:#181818;stroke-width:0.5;" x1="216" x2="500.6452" y1="166.5938" y2="166.5938"/><text fill="#000000" font-family="sans-serif" font-size="14" lengthAdjust="spacing" textLength="59.8213" x="328.4119" y="158.292">PLAYING</text><g class="entity" data-qualified-name="PLAYING.GameLoop" id="ent0003"><rect fill="#F1F1F1" height="78.2031" rx="12.5" ry="12.5" style="stroke:#181818;stroke-width:0.5;" width="211.2852" x="265.36" y="178.5938"/><line style="stroke:#181818;stroke-width:0.5;" x1="265.36" x2="476.6452" y1="204.8906" y2="204.8906"/><text fill="#000000" font-family="sans-serif" font-size="14" lengthAdjust="spacing" textLength="75.4961" x="333.2545" y="196.5889">GameLoop</text><text fill="#000000" font-family="sans-serif" font-size="12" lengthAdjust="spacing" textLength="164.4902" x="270.36" y="221.0293">&#1048;&#1075;&#1088;&#1086;&#1082; &#1088;&#1072;&#1079;&#1084;&#1077;&#1097;&#1072;&#1077;&#1090; &#1092;&#1080;&#1075;&#1091;&#1088;&#1099;</text><text fill="#000000" font-family="sans-serif" font-size="12" lengthAdjust="spacing" textLength="191.2852" x="270.36" y="234.998">&#1055;&#1088;&#1086;&#1074;&#1077;&#1088;&#1082;&#1072; &#1079;&#1072;&#1087;&#1086;&#1083;&#1085;&#1077;&#1085;&#1085;&#1099;&#1093; &#1083;&#1080;&#1085;&#1080;&#1081;</text><text fill="#000000" font-family="sans-serif" font-size="12" lengthAdjust="spacing" textLength="115.8516" x="270.36" y="248.9668">&#1053;&#1072;&#1095;&#1080;&#1089;&#1083;&#1077;&#1085;&#1080;&#1077; &#1086;&#1095;&#1082;&#1086;&#1074;</text></g><g class="start_entity" data-qualified-name="PLAYING..start.PLAYING" data-source-line="6" id="ent0004"><ellipse cx="237" cy="217.6938" fill="#222222" rx="10" ry="10" style="stroke:#222222;stroke-width:1;"/></g><!--link *start*PLAYING to GameLoop--><g class="link" data-entity-1="ent0004" data-entity-2="ent0003" data-link-type="dependency" data-source-line="6" id="lnk5"><path d="M247.47,217.6938 C253.42,217.6938 253.37,217.6938 259.32,217.6938" fill="none" id="*start*PLAYING-to-GameLoop" style="stroke:#181818;stroke-width:1;"/><polygon fill="#181818" points="265.32,217.6938,256.32,213.6938,260.32,217.6938,256.32,221.6938,265.32,217.6938" style="stroke:#181818;stroke-width:1;"/></g><path d="M121.15,361.7969 L357.4897,361.7969 A12.5,12.5 0 0 1 369.9897,374.2969 L369.9897,388.0938 L108.65,388.0938 L108.65,374.2969 A12.5,12.5 0 0 1 121.15,361.7969" fill="#F1F1F1"/><rect fill="none" height="115.5313" rx="12.5" ry="12.5" style="stroke:#181818;stroke-width:0.5;" width="261.3397" x="108.65" y="361.7969"/><line style="stroke:#181818;stroke-width:0.5;" x1="108.65" x2="369.9897" y1="388.0938" y2="388.0938"/><text fill="#000000" font-family="sans-serif" font-size="14" lengthAdjust="spacing" textLength="85.2373" x="196.7012" y="379.792">LOSS_MENU</text><g class="entity" data-qualified-name="LOSS_MENU.Options" id="ent0005"><rect fill="#F1F1F1" height="64.2344" rx="12.5" ry="12.5" style="stroke:#181818;stroke-width:0.5;" width="188.6797" x="157.31" y="400.0938"/><line style="stroke:#181818;stroke-width:0.5;" x1="157.31" x2="345.9897" y1="426.3906" y2="426.3906"/><text fill="#000000" font-family="sans-serif" font-size="14" lengthAdjust="spacing" textLength="54.0176" x="224.6411" y="418.0889">Options</text><text fill="#000000" font-family="sans-serif" font-size="12" lengthAdjust="spacing" textLength="107.9063" x="162.31" y="442.5293">&#1055;&#1086;&#1082;&#1072;&#1079;&#1072;&#1090;&#1100; &#1082;&#1085;&#1086;&#1087;&#1082;&#1080;</text><text fill="#000000" font-family="sans-serif" font-size="12" lengthAdjust="spacing" textLength="168.6797" x="162.31" y="456.498">"Restart" &#1080; "Math Question"</text></g><g class="start_entity" data-qualified-name="LOSS_MENU..start.LOSS_MENU" data-source-line="13" id="ent0007"><ellipse cx="129.65" cy="432.2038" fill="#222222" rx="10" ry="10" style="stroke:#222222;stroke-width:1;"/></g><!--link *start*LOSS_MENU to Options--><g class="link" data-entity-1="ent0007" data-entity-2="ent0005" data-link-type="dependency" data-source-line="13" id="lnk8"><path d="M140.13,432.2038 C145.8,432.2038 145.46,432.2038 151.12,432.2038" fill="none" id="*start*LOSS_MENU-to-Options" style="stroke:#181818;stroke-width:1;"/><polygon fill="#181818" points="157.12,432.2038,148.12,428.2038,152.12,432.2038,148.12,436.2038,157.12,432.2038" style="stroke:#181818;stroke-width:1;"/></g><path d="M251.99,554.3269 L628.6658,554.3269 A12.5,12.5 0 0 1 641.1658,566.8269 L641.1658,580.6238 L239.49,580.6238 L239.49,566.8269 A12.5,12.5 0 0 1 251.99,554.3269" fill="#F1F1F1"/><rect fill="none" height="305.7969" rx="12.5" ry="12.5" style="stroke:#181818;stroke-width:0.5;" width="401.6758" x="239.49" y="554.3269"/><line style="stroke:#181818;stroke-width:0.5;" x1="239.49" x2="641.1658" y1="580.6238" y2="580.6238"/><text fill="#000000" font-family="sans-serif" font-size="14" lengthAdjust="spacing" textLength="177.6387" x="351.5086" y="572.322">WAITING_MATH_ANSWER</text><g class="entity" data-qualified-name="WAITING_MATH_ANSWER.DisplayQuestion" id="ent0007"><rect fill="#F1F1F1" height="64.2344" rx="12.5" ry="12.5" style="stroke:#181818;stroke-width:0.5;" width="236.0996" x="288.44" y="592.6238"/><line style="stroke:#181818;stroke-width:0.5;" x1="288.44" x2="524.5396" y1="618.9206" y2="618.9206"/><text fill="#000000" font-family="sans-serif" font-size="14" lengthAdjust="spacing" textLength="114.2217" x="349.379" y="610.6189">DisplayQuestion</text><text fill="#000000" font-family="sans-serif" font-size="12" lengthAdjust="spacing" textLength="216.0996" x="293.44" y="635.0593">&#1055;&#1086;&#1082;&#1072;&#1079;&#1072;&#1090;&#1100; &#1084;&#1072;&#1090;&#1077;&#1084;&#1072;&#1090;&#1080;&#1095;&#1077;&#1089;&#1082;&#1080;&#1081; &#1074;&#1086;&#1087;&#1088;&#1086;&#1089;</text><text fill="#000000" font-family="sans-serif" font-size="12" lengthAdjust="spacing" textLength="93.7969" x="293.44" y="649.028">(&#1080;&#1079; EduModule)</text></g><g class="entity" data-qualified-name="WAITING_MATH_ANSWER.WaitInput" id="ent0008"><rect fill="#F1F1F1" height="50.2656" rx="12.5" ry="12.5" style="stroke:#181818;stroke-width:0.5;" width="181.1563" x="315.91" y="693.8538"/><line style="stroke:#181818;stroke-width:0.5;" x1="315.91" x2="497.0663" y1="720.1506" y2="720.1506"/><text fill="#000000" font-family="sans-serif" font-size="14" lengthAdjust="spacing" textLength="68.0518" x="372.4622" y="711.8489">WaitInput</text><text fill="#000000" font-family="sans-serif" font-size="12" lengthAdjust="spacing" textLength="161.1563" x="320.91" y="736.2893">&#1054;&#1078;&#1080;&#1076;&#1072;&#1085;&#1080;&#1077; &#1086;&#1090;&#1074;&#1077;&#1090;&#1072; &#1080;&#1075;&#1088;&#1086;&#1082;&#1072;</text></g><g class="start_entity" data-qualified-name="WAITING_MATH_ANSWER..start.WAITING_MATH_ANSWER" data-source-line="21" id="ent0011"><ellipse cx="260.49" cy="624.7438" fill="#222222" rx="10" ry="10" style="stroke:#222222;stroke-width:1;"/></g><g class="entity" data-qualified-name="WAITING_MATH_ANSWER.AnswerCorrect" id="ent0014"><rect fill="#F1F1F1" height="50" rx="12.5" ry="12.5" style="stroke:#181818;stroke-width:0.5;" width="123.2158" x="268.88" y="797.1238"/><line style="stroke:#181818;stroke-width:0.5;" x1="268.88" x2="392.0958" y1="823.4206" y2="823.4206"/><text fill="#000000" font-family="sans-serif" font-size="14" lengthAdjust="spacing" textLength="103.2158" x="278.88" y="815.1189">AnswerCorrect</text></g><g class="entity" data-qualified-name="WAITING_MATH_ANSWER.AnswerWrong" id="ent0016"><rect fill="#F1F1F1" height="50" rx="12.5" ry="12.5" style="stroke:#181818;stroke-width:0.5;" width="117.4873" x="424.75" y="797.1238"/><line style="stroke:#181818;stroke-width:0.5;" x1="424.75" x2="542.2373" y1="823.4206" y2="823.4206"/><text fill="#000000" font-family="sans-serif" font-size="14" lengthAdjust="spacing" textLength="97.4873" x="434.75" y="815.1189">AnswerWrong</text></g><!--link *start*WAITING_MATH_ANSWER to DisplayQuestion--><g class="link" data-entity-1="ent0011" data-entity-2="ent0007" data-link-type="dependency" data-source-line="21" id="lnk12"><path d="M270.76,624.7438 C276.5,624.7438 276.24,624.7438 281.99,624.7438" fill="none" id="*start*WAITING_MATH_ANSWER-to-DisplayQuestion" style="stroke:#181818;stroke-width:1;"/><polygon fill="#181818" points="287.99,624.7438,278.99,620.7438,282.99,624.7438,278.99,628.7438,287.99,624.7438" style="stroke:#181818;stroke-width:1;"/></g><!--link DisplayQuestion to WaitInput--><g class="link" data-entity-1="ent0007" data-entity-2="ent0008" data-link-type="dependency" data-source-line="23" id="lnk13"><path d="M406.49,657.2338 C406.49,669.1338 406.49,676.4838 406.49,687.6338" fill="none" id="DisplayQuestion-to-WaitInput" style="stroke:#181818;stroke-width:1;"/><polygon fill="#181818" points="406.49,693.6338,410.49,684.6338,406.49,688.6338,402.49,684.6338,406.49,693.6338" style="stroke:#181818;stroke-width:1;"/></g><!--link WaitInput to AnswerCorrect--><g class="link" data-entity-1="ent0008" data-entity-2="ent0014" data-link-type="dependency" data-source-line="25" id="lnk15"><path d="M347.81,744.3538 C341.35,749.3238 335.62,755.1938 331.49,762.1238 C325.4,772.3338 324.0988,779.4264 325.0788,790.6664" fill="none" id="WaitInput-to-AnswerCorrect" style="stroke:#181818;stroke-width:1;"/><polygon fill="#181818" points="325.6,796.6438,328.8032,787.3303,325.1657,791.6626,320.8334,788.0252,325.6,796.6438" style="stroke:#181818;stroke-width:1;"/><text fill="#000000" font-family="sans-serif" font-size="13" lengthAdjust="spacing" textLength="128.1782" x="332.49" y="775.1906">&#1055;&#1088;&#1072;&#1074;&#1080;&#1083;&#1100;&#1085;&#1099;&#1081; &#1086;&#1090;&#1074;&#1077;&#1090;</text></g><!--link WaitInput to AnswerWrong--><g class="link" data-entity-1="ent0008" data-entity-2="ent0016" data-link-type="dependency" data-source-line="26" id="lnk17"><path d="M444.6,744.6238 C450.83,749.8538 456.77,755.7438 461.49,762.1238 C469.03,772.3138 472.4962,779.6489 475.9562,790.8989" fill="none" id="WaitInput-to-AnswerWrong" style="stroke:#181818;stroke-width:1;"/><polygon fill="#181818" points="477.72,796.6338,478.8976,786.8555,476.2502,791.8547,471.251,789.2073,477.72,796.6338" style="stroke:#181818;stroke-width:1;"/><text fill="#000000" font-family="sans-serif" font-size="13" lengthAdjust="spacing" textLength="144.6758" x="471.49" y="775.1906">&#1053;&#1077;&#1087;&#1088;&#1072;&#1074;&#1080;&#1083;&#1100;&#1085;&#1099;&#1081; &#1086;&#1090;&#1074;&#1077;&#1090;</text></g><g class="start_entity" data-qualified-name=".start." data-source-line="3" id="ent0002"><ellipse cx="358.32" cy="53.2969" fill="#222222" rx="10" ry="10" style="stroke:#222222;stroke-width:1;"/></g><!--link *start* to PLAYING--><g class="link" data-entity-1="ent0002" data-entity-2="ent0002" data-link-type="dependency" data-source-line="3" id="lnk3"><path d="M358.32,63.6669 C358.32,78.9669 358.32,104.5769 358.32,133.9269" fill="none" id="*start*-to-PLAYING" style="stroke:#181818;stroke-width:1;"/><polygon fill="#181818" points="358.32,139.9269,362.32,130.9269,358.32,134.9269,354.32,130.9269,358.32,139.9269" style="stroke:#181818;stroke-width:1;"/><text fill="#000000" font-family="sans-serif" font-size="13" lengthAdjust="spacing" textLength="76.8066" x="359.32" y="106.3638">&#1053;&#1086;&#1074;&#1072;&#1103; &#1080;&#1075;&#1088;&#1072;</text></g><!--link PLAYING to LOSS_MENU--><g class="link" data-entity-1="ent0002" data-entity-2="ent0004" data-link-type="dependency" data-source-line="10" id="lnk6"><path d="M215.85,230.1969 C140.45,246.1869 58.86,269.7569 36.32,299.7969 C6,340.2169 46.7562,367.3555 102.8162,386.6355" fill="none" id="PLAYING-to-LOSS_MENU" style="stroke:#181818;stroke-width:1;"/><polygon fill="#181818" points="108.49,388.5869,101.2801,381.8773,103.7618,386.9608,98.6784,389.4424,108.49,388.5869" style="stroke:#181818;stroke-width:1;"/><text fill="#000000" font-family="sans-serif" font-size="13" lengthAdjust="spacing" textLength="152.3184" x="59.5939" y="312.8638">&#1053;&#1077;&#1090; &#1074;&#1086;&#1079;&#1084;&#1086;&#1078;&#1085;&#1099;&#1093; &#1093;&#1086;&#1076;&#1086;&#1074;</text><text fill="#000000" font-family="sans-serif" font-size="13" lengthAdjust="spacing" textLength="196.8662" x="37.32" y="327.9966">(&#1087;&#1086;&#1089;&#1083;&#1077; &#1088;&#1072;&#1079;&#1084;&#1077;&#1097;&#1077;&#1085;&#1080;&#1103; &#1092;&#1080;&#1075;&#1091;&#1088;&#1099;)</text></g><!--link LOSS_MENU to PLAYING--><g class="link" data-entity-1="ent0004" data-entity-2="ent0002" data-link-type="dependency" data-source-line="17" id="lnk9"><path d="M250.65,361.5269 C256.07,341.2469 263.75,318.7569 274.32,299.7969 C280.02,289.5869 283.2858,284.2591 290.7658,274.7691" fill="none" id="LOSS_MENU-to-PLAYING" style="stroke:#181818;stroke-width:1;"/><polygon fill="#181818" points="294.48,270.0569,285.7673,274.6491,291.3849,273.9837,292.0502,279.6013,294.48,270.0569" style="stroke:#181818;stroke-width:1;"/><text fill="#000000" font-family="sans-serif" font-size="13" lengthAdjust="spacing" textLength="138.0298" x="275.32" y="320.3638">Restart (&#1089;&#1073;&#1088;&#1086;&#1089; &#1080;&#1075;&#1088;&#1099;)</text></g><!--link LOSS_MENU to WAITING_MATH_ANSWER--><g class="link" data-entity-1="ent0004" data-entity-2="ent0006" data-link-type="dependency" data-source-line="18" id="lnk10"><path d="M279.52,477.6869 C295.21,499.9969 310.5675,521.8197 329.6975,549.0097" fill="none" id="LOSS_MENU-to-WAITING_MATH_ANSWER" style="stroke:#181818;stroke-width:1;"/><polygon fill="#181818" points="333.15,553.9169,331.2427,544.2545,330.2729,549.8276,324.6998,548.8578,333.15,553.9169" style="stroke:#181818;stroke-width:1;"/><text fill="#000000" font-family="sans-serif" font-size="13" lengthAdjust="spacing" textLength="94.7959" x="311.32" y="520.3938">Math Question</text></g><!--link WAITING_MATH_ANSWER to PLAYING--><g class="link" data-entity-1="ent0006" data-entity-2="ent0002" data-link-type="dependency" data-source-line="29" id="lnk18"><path d="M450.3,554.2569 C450.89,476.4269 444.55,381.1869 418.32,299.7969 C415.09,289.7769 413.3916,285.0351 408.1916,275.4951" fill="none" id="WAITING_MATH_ANSWER-to-PLAYING" style="stroke:#181818;stroke-width:1;"/><polygon fill="#181818" points="405.32,270.2269,406.1152,280.0436,407.713,274.6171,413.1395,276.2148,405.32,270.2269" style="stroke:#181818;stroke-width:1;"/><text fill="#000000" font-family="sans-serif" font-size="13" lengthAdjust="spacing" textLength="95.8433" x="578.5522" y="416.6338">AnswerCorrect</text><text fill="#000000" font-family="sans-serif" font-size="13" lengthAdjust="spacing" textLength="352.3076" x="450.32" y="431.7666">(&#1076;&#1086;&#1073;&#1072;&#1074;&#1080;&#1090;&#1100; 3 &#1089;&#1087;&#1072;&#1089;&#1072;&#1090;&#1077;&#1083;&#1100;&#1085;&#1099;&#1093; &#1082;&#1091;&#1073;&#1072;, &#1087;&#1088;&#1086;&#1076;&#1086;&#1083;&#1078;&#1080;&#1090;&#1100; &#1080;&#1075;&#1088;&#1091;)</text></g><!--link WAITING_MATH_ANSWER to PLAYING--><g class="link" data-entity-1="ent0006" data-entity-2="ent0002" data-link-type="dependency" data-source-line="30" id="lnk19"><path d="M641.57,621.0569 C763.66,556.7469 883.25,462.5769 811.32,361.7969 C741.4,263.8069 611.6698,227.6113 506.9498,213.9813" fill="none" id="WAITING_MATH_ANSWER-to-PLAYING-1" style="stroke:#181818;stroke-width:1;"/><polygon fill="#181818" points="501,213.2069,509.4084,218.335,505.9582,213.8522,510.441,210.4019,501,213.2069" style="stroke:#181818;stroke-width:1;"/><text fill="#000000" font-family="sans-serif" font-size="13" lengthAdjust="spacing" textLength="90.5239" x="953.8429" y="416.6338">AnswerWrong</text><text fill="#000000" font-family="sans-serif" font-size="13" lengthAdjust="spacing" textLength="331.5698" x="833.32" y="431.7666">(&#1087;&#1086;&#1083;&#1085;&#1099;&#1081; &#1089;&#1073;&#1088;&#1086;&#1089;: &#1086;&#1095;&#1082;&#1080;=0, &#1087;&#1086;&#1083;&#1077; &#1086;&#1095;&#1080;&#1097;&#1077;&#1085;&#1086;, &#1082;&#1091;&#1073;&#1099;=0)</text></g><?plantuml-src ZLJTQXfH4BxVfnYyQImAWTu92TX6Ki6VDgP8gKKMipHIkokwqfPIy2UX50EvxKtgAnZRRJOQrrUOyqQTcREhsM9B1TazipFVV3FppN6RRik2Yckw5XJDncdJjY0D1Uk3cNxSSXflkuRnwk5hIAVtuLaX-p9VEeGCu1K6ECEfkWJqyOVguzGmke8HENqoW7uIkW-7vZkhu3XjiKK7nlacmG7EWJ7m1k_GKr_fpLD3K6S2Fb9zDQxPE17F6NtgunodGDvJN95fWKlqwBzKOtKETFJfuECjnLmHno_egm5PFR5wW06PvWnbV3QCY2yNM2XNAlLYhlH2byWSA5yWj0By5IPGvtJuoV4rUuS9QFHu1PACsdE_XcJKeqsUM9VARRVfs5qnXUzCPCBz4UYf6geBeCEIJ2jw-ZKxSMGHQCTDq2GWKJJTKtZU8nD59xY-JQxu2CCms27srznPDGXdoKJZKTLi_fYYwiNiyTDwjbIfveu88POhAcsRQwp8WsQttJ8_hkFuqn-shKNVyGkrLJzz6g57pESyPpsabIw2P-BZ3UHEUaNdfDUoabjJI5bcqytRxPuh7kiJf_zEq_PfoDEDPeOYlI4BpuzKIxAFXp9irkw-jpfFd4x7QWZOH9Gnex25kc0HCUKru5yHgXt7VXCgKQhx1mODUblduoEF4UC-iOYlDQmq-H5GIrVKu47Ox30NRzLSZTWt1RhH4hlWBkdnQEMCalzDGweB5uWtM2hQQ34JhQc_jyivnIdSNJ_Sho0LqbBZlLrQhWTmN3uePu2sRIYEIysEt4WhcYTT3i13n5jHqeXNVCapNVSo1T6sOw3zvTizCHBMfHXZmXDXC5E-dpnzEH7-GDGQHlq6?></g></svg>